# xmcd
#
# Track frame offsets: 
#        182
#        22370
#        44885
#        74622
#        98460
#        123875
#        151402
#        171570
#        191555
#        216037
#        236672
#
# Disc length: 3701 seconds
#
# Revision: 2
# Processed by: cddbd v1.5.2PL0 Copyright (c) Steve Scherf et al.
# Submitted via: ExactAudioCopy v0.99pb3
#
DISCID=a30e730b
DTITLE=Jim White - Wrong-Eyed Jesus
DYEAR=1997
DGENRE=Alternative
TTITLE0=Book of Angels
TTITLE1=Burn the River Dry
TTITLE2=Still Waters
TTITLE3=When Jesus Getsa Brand New Name
TTITLE4=Sleepy Town
TTITLE5=A Perfect Day to Chase Tornados
TTITLE6=Wordmule
TTITLE7=Stabbed in the Heart
TTITLE8=Angel Land
TTITLE9=Heaven of My Heart
TTITLE10=The Road That Leads To Heaven
EXTD=
EXTT0=
EXTT1=
EXTT2=
EXTT3=
EXTT4=
EXTT5=
EXTT6=
EXTT7=
EXTT8=
EXTT9=
EXTT10=
PLAYORDER=
